<svg width="335" height="100" viewBox="0 0 335 100" fill="none" xmlns="http://www.w3.org/2000/svg">
<g clip-path="url(#clip0_2_10)">
<rect width="193.027" height="100" transform="translate(0.5)" fill="white"/>
<path d="M0.5 0H193.527V100H0.5V0Z" fill="#F0141E"/>
<path d="M163.847 23.3095V7.99552H130.76L125.313 59.1365L119.931 7.99552H107.999L109.332 21.6515C107.957 18.1515 103.074 7.99552 92.3225 7.99552C92.2511 7.98952 80.3761 7.99552 80.3761 7.99552L80.3267 82.5375L71.6316 7.99552L56.0026 7.98952L47.006 85.223L47.011 7.99552H32.0506L26.6594 51.3795L21.4075 7.99552H6.44482V91.9615H18.2283V51.4895L23.5891 91.9615H29.8524L35.1375 51.4895V91.9615H57.8521L59.2257 79.0465H68.3706L69.7441 91.9615L92.0469 91.98H92.0631V91.9615H92.0909V64.7095L94.8218 64.1975L100.482 91.98H112.018L112.014 91.9615H112.046L104.619 59.4065C108.38 55.817 112.631 46.717 111.5 38.0075V38.0045C111.514 38.1175 118.512 92.0175 118.512 92.0175L132.23 91.9625L141.603 15.861V91.9625H163.846V76.863H153.29V57.6095H163.846V42.2795H153.29V23.3095H163.847ZM60.6136 65.735L63.8514 29.834L67.2062 65.735H60.6136ZM94.8597 49.1575C93.9547 49.719 93.0128 50 92.0909 50.003V22.998C92.1052 22.998 92.1268 22.995 92.1499 22.995C93.0688 22.986 99.9494 23.352 99.9494 36.3495C99.9494 43.1485 97.6099 47.4365 94.8597 49.1575ZM187.584 76.849V91.943H165.883V7.98352H177.569V76.849H187.584Z" fill="white"/>
</g>
<path d="M207.522 44.28C208.482 44.28 209.324 44.4453 210.05 44.776C210.775 45.1067 211.394 45.5973 211.906 46.248L210.674 47.672C210.236 47.1173 209.756 46.712 209.234 46.456C208.722 46.1893 208.124 46.056 207.442 46.056C206.994 46.056 206.62 46.1147 206.322 46.232C206.034 46.3493 205.82 46.504 205.682 46.696C205.554 46.888 205.49 47.1013 205.49 47.336C205.49 47.624 205.602 47.8693 205.826 48.072C206.05 48.264 206.434 48.424 206.978 48.552L208.946 49C209.991 49.2347 210.738 49.5867 211.186 50.056C211.644 50.5147 211.874 51.112 211.874 51.848C211.874 52.5413 211.692 53.1387 211.33 53.64C210.967 54.1307 210.46 54.5093 209.81 54.776C209.159 55.032 208.412 55.16 207.57 55.16C206.834 55.16 206.156 55.0747 205.538 54.904C204.93 54.7227 204.386 54.4773 203.906 54.168C203.426 53.8587 203.026 53.5013 202.706 53.096L203.954 51.608C204.199 51.9493 204.503 52.2533 204.866 52.52C205.228 52.7867 205.639 53 206.098 53.16C206.567 53.3093 207.058 53.384 207.57 53.384C208.007 53.384 208.375 53.336 208.674 53.24C208.983 53.1333 209.212 52.9893 209.362 52.808C209.522 52.616 209.602 52.3867 209.602 52.12C209.602 51.8427 209.506 51.608 209.314 51.416C209.132 51.2133 208.791 51.0587 208.29 50.952L206.146 50.472C205.527 50.3227 204.994 50.1307 204.546 49.896C204.108 49.6507 203.772 49.3413 203.538 48.968C203.314 48.584 203.202 48.1307 203.202 47.608C203.202 46.9787 203.372 46.4133 203.714 45.912C204.055 45.4107 204.546 45.016 205.186 44.728C205.836 44.4293 206.615 44.28 207.522 44.28ZM217.451 55.16C216.608 55.16 215.872 54.9947 215.243 54.664C214.624 54.3333 214.144 53.8587 213.803 53.24C213.461 52.6213 213.291 51.8747 213.291 51C213.291 50.1253 213.461 49.3787 213.803 48.76C214.144 48.1413 214.619 47.6667 215.227 47.336C215.845 47.0053 216.549 46.84 217.339 46.84C218.149 46.84 218.837 47.0053 219.403 47.336C219.968 47.656 220.4 48.0987 220.699 48.664C220.997 49.2187 221.147 49.8533 221.147 50.568C221.147 50.7813 221.141 50.984 221.131 51.176C221.12 51.368 221.104 51.5387 221.083 51.688H214.699V50.168H220.123L219.067 50.552C219.067 49.88 218.912 49.3627 218.603 49C218.304 48.6373 217.877 48.456 217.323 48.456C216.917 48.456 216.565 48.552 216.267 48.744C215.979 48.936 215.76 49.224 215.611 49.608C215.461 49.9813 215.387 50.456 215.387 51.032C215.387 51.5973 215.467 52.0667 215.627 52.44C215.797 52.8027 216.032 53.0747 216.331 53.256C216.64 53.4373 217.008 53.528 217.435 53.528C217.904 53.528 218.283 53.4373 218.571 53.256C218.859 53.0747 219.083 52.824 219.243 52.504L220.987 53.176C220.816 53.592 220.555 53.9493 220.203 54.248C219.861 54.5467 219.451 54.776 218.971 54.936C218.501 55.0853 217.995 55.16 217.451 55.16ZM227.564 49.896C227.564 49.4373 227.431 49.08 227.164 48.824C226.908 48.568 226.567 48.44 226.14 48.44C225.746 48.44 225.399 48.5413 225.1 48.744C224.802 48.9467 224.583 49.2827 224.444 49.752L222.572 49.176C222.754 48.472 223.148 47.9067 223.756 47.48C224.375 47.0533 225.202 46.84 226.236 46.84C226.94 46.84 227.554 46.952 228.076 47.176C228.599 47.3893 229.004 47.7147 229.292 48.152C229.591 48.5893 229.74 49.1387 229.74 49.8V53.048C229.74 53.4533 229.932 53.656 230.316 53.656C230.498 53.656 230.668 53.6293 230.828 53.576L230.7 54.936C230.423 55.0747 230.076 55.144 229.66 55.144C229.287 55.144 228.951 55.08 228.652 54.952C228.354 54.824 228.119 54.632 227.948 54.376C227.778 54.1093 227.692 53.7787 227.692 53.384V53.32L228.076 53.256C228.012 53.6613 227.836 54.008 227.548 54.296C227.26 54.5733 226.908 54.7867 226.492 54.936C226.087 55.0853 225.666 55.16 225.228 55.16C224.684 55.16 224.215 55.08 223.82 54.92C223.426 54.7493 223.122 54.504 222.908 54.184C222.695 53.864 222.588 53.4693 222.588 53C222.588 52.4027 222.78 51.9173 223.164 51.544C223.548 51.16 224.098 50.8987 224.812 50.76L227.82 50.152L227.804 51.512L225.884 51.896C225.522 51.9707 225.244 52.072 225.052 52.2C224.871 52.3173 224.78 52.5147 224.78 52.792C224.78 53.0587 224.876 53.2613 225.068 53.4C225.271 53.5387 225.511 53.608 225.788 53.608C226.012 53.608 226.231 53.5813 226.444 53.528C226.658 53.4747 226.85 53.3893 227.02 53.272C227.191 53.1547 227.324 52.9947 227.42 52.792C227.516 52.5893 227.564 52.344 227.564 52.056V49.896ZM232.192 55V47H234.096L234.24 48.568C234.453 48.0133 234.762 47.5867 235.168 47.288C235.584 46.9893 236.101 46.84 236.72 46.84C236.901 46.84 237.066 46.856 237.216 46.888C237.365 46.92 237.488 46.9627 237.584 47.016L237.328 48.856C237.221 48.8133 237.088 48.7813 236.928 48.76C236.778 48.7387 236.581 48.728 236.336 48.728C236.016 48.728 235.706 48.808 235.408 48.968C235.109 49.1173 234.864 49.352 234.672 49.672C234.48 49.9813 234.384 50.376 234.384 50.856V55H232.192ZM242.418 46.84C243.132 46.84 243.735 46.9467 244.226 47.16C244.727 47.3627 245.127 47.6453 245.426 48.008C245.735 48.36 245.954 48.7547 246.082 49.192L244.034 49.928C243.927 49.448 243.746 49.0853 243.49 48.84C243.234 48.5947 242.887 48.472 242.45 48.472C242.044 48.472 241.698 48.568 241.41 48.76C241.122 48.9413 240.903 49.224 240.754 49.608C240.604 49.9813 240.53 50.4507 240.53 51.016C240.53 51.5813 240.604 52.0507 240.754 52.424C240.914 52.7973 241.138 53.0747 241.426 53.256C241.724 53.4373 242.071 53.528 242.466 53.528C242.786 53.528 243.058 53.4747 243.282 53.368C243.506 53.2507 243.687 53.0853 243.826 52.872C243.975 52.6587 244.076 52.4027 244.13 52.104L246.114 52.744C245.996 53.224 245.778 53.6453 245.458 54.008C245.138 54.3707 244.727 54.6533 244.226 54.856C243.724 55.0587 243.143 55.16 242.482 55.16C241.66 55.16 240.935 54.9947 240.306 54.664C239.676 54.3333 239.191 53.8587 238.85 53.24C238.508 52.6213 238.338 51.8747 238.338 51C238.338 50.1253 238.508 49.3787 238.85 48.76C239.191 48.1413 239.671 47.6667 240.29 47.336C240.908 47.0053 241.618 46.84 242.418 46.84ZM247.817 55V43.496H250.009V48.36C250.265 47.848 250.617 47.4693 251.065 47.224C251.513 46.968 252.019 46.84 252.585 46.84C253.139 46.84 253.63 46.9467 254.057 47.16C254.494 47.3733 254.835 47.6987 255.081 48.136C255.337 48.5627 255.465 49.1013 255.465 49.752V55H253.273V50.392C253.273 49.6987 253.139 49.224 252.873 48.968C252.606 48.7013 252.265 48.568 251.849 48.568C251.539 48.568 251.241 48.6427 250.953 48.792C250.675 48.9307 250.446 49.1653 250.265 49.496C250.094 49.816 250.009 50.2427 250.009 50.776V55H247.817ZM262.614 55V43.496H264.806V48.36C265.062 47.848 265.414 47.4693 265.862 47.224C266.31 46.968 266.816 46.84 267.382 46.84C267.936 46.84 268.427 46.9467 268.854 47.16C269.291 47.3733 269.632 47.6987 269.878 48.136C270.134 48.5627 270.262 49.1013 270.262 49.752V55H268.07V50.392C268.07 49.6987 267.936 49.224 267.67 48.968C267.403 48.7013 267.062 48.568 266.646 48.568C266.336 48.568 266.038 48.6427 265.75 48.792C265.472 48.9307 265.243 49.1653 265.062 49.496C264.891 49.816 264.806 50.2427 264.806 50.776V55H262.614ZM276.232 55.16C275.389 55.16 274.653 54.9947 274.024 54.664C273.405 54.3333 272.925 53.8587 272.584 53.24C272.243 52.6213 272.072 51.8747 272.072 51C272.072 50.1253 272.243 49.3787 272.584 48.76C272.925 48.1413 273.4 47.6667 274.008 47.336C274.627 47.0053 275.331 46.84 276.12 46.84C276.931 46.84 277.619 47.0053 278.184 47.336C278.749 47.656 279.181 48.0987 279.48 48.664C279.779 49.2187 279.928 49.8533 279.928 50.568C279.928 50.7813 279.923 50.984 279.912 51.176C279.901 51.368 279.885 51.5387 279.864 51.688H273.48V50.168H278.904L277.848 50.552C277.848 49.88 277.693 49.3627 277.384 49C277.085 48.6373 276.659 48.456 276.104 48.456C275.699 48.456 275.347 48.552 275.048 48.744C274.76 48.936 274.541 49.224 274.392 49.608C274.243 49.9813 274.168 50.456 274.168 51.032C274.168 51.5973 274.248 52.0667 274.408 52.44C274.579 52.8027 274.813 53.0747 275.112 53.256C275.421 53.4373 275.789 53.528 276.216 53.528C276.685 53.528 277.064 53.4373 277.352 53.256C277.64 53.0747 277.864 52.824 278.024 52.504L279.768 53.176C279.597 53.592 279.336 53.9493 278.984 54.248C278.643 54.5467 278.232 54.776 277.752 54.936C277.283 55.0853 276.776 55.16 276.232 55.16ZM281.786 55V47H283.69L283.834 48.568C284.047 48.0133 284.356 47.5867 284.762 47.288C285.178 46.9893 285.695 46.84 286.314 46.84C286.495 46.84 286.66 46.856 286.81 46.888C286.959 46.92 287.082 46.9627 287.178 47.016L286.922 48.856C286.815 48.8133 286.682 48.7813 286.522 48.76C286.372 48.7387 286.175 48.728 285.93 48.728C285.61 48.728 285.3 48.808 285.002 48.968C284.703 49.1173 284.458 49.352 284.266 49.672C284.074 49.9813 283.978 50.376 283.978 50.856V55H281.786ZM292.027 46.84C292.838 46.84 293.547 47.0053 294.155 47.336C294.774 47.6667 295.254 48.1413 295.595 48.76C295.947 49.3787 296.123 50.1253 296.123 51C296.123 51.864 295.947 52.6107 295.595 53.24C295.254 53.8587 294.774 54.3333 294.155 54.664C293.547 54.9947 292.838 55.16 292.027 55.16C291.227 55.16 290.518 54.9947 289.899 54.664C289.281 54.3333 288.795 53.8587 288.443 53.24C288.102 52.6107 287.931 51.864 287.931 51C287.931 50.1253 288.102 49.3787 288.443 48.76C288.795 48.1413 289.281 47.6667 289.899 47.336C290.518 47.0053 291.227 46.84 292.027 46.84ZM292.027 48.472C291.622 48.472 291.275 48.568 290.987 48.76C290.71 48.9413 290.497 49.2187 290.347 49.592C290.198 49.9653 290.123 50.4347 290.123 51C290.123 51.5653 290.198 52.0347 290.347 52.408C290.497 52.7813 290.71 53.064 290.987 53.256C291.275 53.4373 291.622 53.528 292.027 53.528C292.422 53.528 292.758 53.4373 293.035 53.256C293.323 53.064 293.542 52.7813 293.691 52.408C293.841 52.0347 293.915 51.5653 293.915 51C293.915 50.4347 293.841 49.9653 293.691 49.592C293.542 49.2187 293.323 48.9413 293.035 48.76C292.758 48.568 292.422 48.472 292.027 48.472ZM301.157 55.16C300.347 55.16 299.605 55.016 298.933 54.728C298.272 54.44 297.733 54.0347 297.317 53.512L298.581 52.232C298.837 52.616 299.179 52.9307 299.605 53.176C300.032 53.4213 300.539 53.544 301.125 53.544C301.541 53.544 301.872 53.4853 302.117 53.368C302.373 53.24 302.501 53.0427 302.501 52.776C302.501 52.6053 302.443 52.4613 302.325 52.344C302.208 52.216 301.973 52.1147 301.621 52.04L300.213 51.752C299.285 51.56 298.624 51.272 298.229 50.888C297.845 50.4933 297.653 49.9867 297.653 49.368C297.653 48.9307 297.781 48.52 298.037 48.136C298.304 47.752 298.699 47.4427 299.221 47.208C299.744 46.9627 300.395 46.84 301.173 46.84C301.973 46.84 302.667 46.968 303.253 47.224C303.851 47.4693 304.32 47.8373 304.661 48.328L303.349 49.608C303.115 49.2347 302.805 48.952 302.421 48.76C302.048 48.5573 301.653 48.456 301.237 48.456C300.939 48.456 300.683 48.488 300.469 48.552C300.256 48.616 300.096 48.7067 299.989 48.824C299.883 48.9307 299.829 49.0693 299.829 49.24C299.829 49.4107 299.904 49.56 300.053 49.688C300.203 49.8053 300.475 49.9067 300.869 49.992L302.501 50.328C303.291 50.488 303.856 50.76 304.197 51.144C304.539 51.5173 304.709 51.9707 304.709 52.504C304.709 53.016 304.571 53.4747 304.293 53.88C304.027 54.2747 303.627 54.5893 303.093 54.824C302.571 55.048 301.925 55.16 301.157 55.16Z" fill="#404040"/>
<defs>
<clipPath id="clip0_2_10">
<rect width="193.027" height="100" fill="white" transform="translate(0.5)"/>
</clipPath>
</defs>
</svg>
